<svg width="231" height="24" viewBox="0 0 231 24" fill="none" xmlns="http://www.w3.org/2000/svg">
<g id="logo-flagscape">
<path id="registered" fill-rule="evenodd" clip-rule="evenodd" d="M214.19 22.9146C213.752 22.9146 213.402 22.5819 213.402 22.1504C213.402 21.7385 213.752 21.4016 214.19 21.4016C214.621 21.4016 214.965 21.7385 214.965 22.1504C214.965 22.5819 214.621 22.9146 214.19 22.9146ZM214.19 21.2168C213.652 21.2168 213.219 21.6387 213.219 22.1504C213.219 22.6795 213.652 23.0994 214.19 23.0994C214.722 23.0994 215.153 22.6795 215.153 22.1504C215.153 21.6387 214.722 21.2168 214.19 21.2168ZM214.216 22.0693C214.198 22.0689 214.18 22.0686 214.163 22.0686H213.988V21.7523H214.264C214.405 21.7523 214.527 21.767 214.527 21.9037C214.527 22.0752 214.361 22.0721 214.216 22.0693ZM214.487 22.6856H214.668L214.338 22.1976C214.533 22.1908 214.681 22.1151 214.681 21.9072C214.681 21.8203 214.642 21.726 214.561 21.6833C214.479 21.6364 214.392 21.6307 214.297 21.6307H213.832V22.6856H213.988V22.1976H214.176L214.487 22.6856Z" fill="#E31837"/>
<path id="flagscape-red" fill-rule="evenodd" clip-rule="evenodd" d="M215.332 3.66841C216.053 3.43503 216.894 3.20049 217.657 2.98773C217.796 2.94895 217.932 2.9109 218.065 2.8737C215.548 1.81431 212.408 0.703587 209.606 0C209.168 0.119671 207.823 0.490233 206.867 0.780908L206.999 0.813038C208.102 1.08082 211.201 1.83289 215.332 3.66841ZM204.13 1.72865C207.047 2.40689 211.303 3.94785 212.513 4.63732C211.669 4.99666 210.48 5.51769 209.584 5.92387C206.448 4.33638 202.802 3.32085 201.471 2.95029L201.471 2.95027C201.372 2.9228 201.286 2.89887 201.214 2.87852C201.994 2.55019 203.11 2.12116 203.955 1.79619L203.955 1.79617L204.13 1.72865ZM230.999 9.69911C225.809 11.7101 216.343 17.3314 209.606 23.0997C208.439 22.1471 207.208 21.1955 206.015 20.3302C213.019 14.7718 220.844 9.8499 227.537 7.64193C228.938 8.44465 230.191 9.18385 230.999 9.69911ZM201.394 16.9726C200.754 16.5252 200.116 16.0793 199.512 15.7119C208.748 8.51267 216.524 5.39192 221.105 4.22794C221.963 4.64758 222.689 5.01634 223.431 5.39263C223.706 5.53218 223.983 5.67276 224.269 5.81735C216.645 8.19793 209.718 12.4201 202.694 17.864C202.266 17.5823 201.83 17.2771 201.394 16.9726Z" fill="#E31837"/>
<path id="flagscape-blue" fill-rule="evenodd" clip-rule="evenodd" d="M188.336 9.69895C190.483 8.33893 194.407 5.9545 198.175 4.22168C198.325 4.26689 198.496 4.31726 198.684 4.37247C199.292 4.55154 200.073 4.78159 200.88 5.05232C199.39 5.70457 195.672 7.65043 190.932 10.862C190.213 10.5088 189.628 10.2579 189.089 10.0268C188.831 9.91598 188.583 9.80974 188.336 9.69895ZM204.306 6.42252C205.007 6.73206 205.782 7.07428 206.519 7.41686C202.931 9.23021 199.687 11.4853 196.475 13.8656C196.132 13.6723 195.797 13.4797 195.469 13.2912C194.812 12.9136 194.182 12.5522 193.575 12.2329C197.751 9.26358 201.044 7.35494 203.585 6.10337C203.812 6.20454 204.055 6.31143 204.306 6.42252Z" fill="#012169"/>
<path id="wordmark" fill-rule="evenodd" clip-rule="evenodd" d="M177.801 12.501L179.193 16.8277H176.376L177.801 12.501ZM179.243 9.7001H176.342L171.948 21.4394H174.866L175.655 19.0078H179.898L180.686 21.4394H183.637L179.243 9.7001ZM168.795 18.2866C167.689 19.0408 166.733 19.3094 165.76 19.3094C163.563 19.3094 162.054 17.8169 162.054 15.5697C162.054 13.3226 163.563 11.8298 165.693 11.8298C166.666 11.8298 167.605 12.0983 168.661 12.8526V10.2032C167.689 9.66641 166.582 9.44824 165.324 9.44824C161.433 9.44824 159.001 12.1317 158.984 15.5697C159.001 19.0408 161.399 21.6909 165.341 21.6909C166.649 21.6909 167.789 21.4734 168.795 20.9366V18.2866ZM151.874 21.4394H154.725V9.7001H151.874V21.4394ZM142.365 11.8635C143.539 11.8635 144.159 12.3832 144.159 13.356C144.159 14.3621 143.539 14.8655 142.365 14.8655H141.158V11.8635H142.365ZM144.495 21.4394H147.597L144.662 16.4588C146.256 16.0224 147.027 14.8989 147.027 13.2389C147.027 11.1089 145.753 9.7001 142.868 9.7001H138.357V21.4394H141.158V16.8107H141.912L144.495 21.4394ZM125.595 21.4394H133.611V19.1923H128.446V16.5762H132.521V14.3961H128.446V11.9472H133.175L133.678 9.7001H125.595V21.4394ZM120.06 9.7001H116.723L113.671 16.0394L110.635 9.7001H107.298V21.4394H109.864V13.5905L113.637 21.4394L117.41 13.5905V21.4394H120.06V9.7001ZM97.2314 12.501L98.6232 16.8277H95.806L97.2314 12.501ZM98.6739 9.7001H95.7723L91.3785 21.4394H94.2968L95.0847 19.0078H99.3278L100.116 21.4394H103.068L98.6739 9.7001ZM77.5249 21.4394H80.3758V16.8107H84.0821V14.5636H80.3758V11.9472H84.8704L85.3734 9.7001H77.5249V21.4394ZM61.0918 15.5697C61.1082 12.1317 63.5401 9.44824 67.3468 9.44824C71.1538 9.44824 73.5857 12.1317 73.6024 15.5697C73.5857 19.0078 71.1538 21.6909 67.3468 21.6909C63.5401 21.6909 61.1082 19.0078 61.0918 15.5697ZM64.1102 15.5697C64.1102 17.9176 65.519 19.3597 67.3468 19.3597C69.1749 19.3597 70.5837 17.9176 70.5837 15.5697C70.5837 13.2219 69.1749 11.7797 67.3468 11.7797C65.519 11.7797 64.1102 13.2219 64.1102 15.5697ZM50.6638 21.4394L46.8064 15.469V21.4394H43.9554V9.7001H46.8064V15.3516L50.4793 9.7001H53.6658L49.8254 15.3352L54.0344 21.4394H50.6638ZM38.3559 9.7001H35.7062V17.549L30.7086 9.7001H27.7235V21.4394H30.3733V13.6078L35.3709 21.4394H38.3559V9.7001ZM17.8627 12.501L19.2545 16.8277H16.4369L17.8627 12.501ZM19.3049 9.7001H16.4036L12.0098 21.4394H14.9277L15.7157 19.0078H19.959L20.747 21.4394H23.6987L19.3049 9.7001ZM4.1426 11.7631C5.11505 11.7631 5.7689 12.1821 5.7689 13.1381C5.7689 14.0942 5.11505 14.5132 4.1426 14.5132H2.80055V11.7631H4.1426ZM4.46087 16.4588C5.43331 16.4588 6.08781 16.9282 6.08781 17.9176C6.08781 18.9574 5.43331 19.3768 4.46087 19.3768H2.80055V16.4588H4.46087ZM0 21.4394H5.13173C7.73112 21.4394 8.95542 20.098 8.95542 18.2028C8.95542 16.6763 8.15045 15.6368 6.47345 15.3012C7.94929 14.9329 8.62015 14.0432 8.62015 12.7188C8.62015 11.0415 7.39585 9.7001 4.79646 9.7001H0V21.4394Z" fill="#012169"/>
</g>
</svg>
